<svg xmlns="http://www.w3.org/2000/svg" width="512" height="512" viewBox="0 0 512 512" version="1.1">
	<path d="M 193 10.594 C 157.927 14.772, 130.525 27.605, 110.481 49.238 C 87.941 73.565, 76.784 101.569, 76.711 134 C 76.673 150.669, 77.512 156.069, 83.212 175.816 C 87.186 189.582, 87.294 190.328, 86.033 195.248 C 84.006 203.157, 84.491 211.209, 87.374 217.506 C 91.272 226.020, 97.928 232.279, 111.877 240.549 C 125.488 248.618, 130.999 250.359, 141.242 249.824 L 147.454 249.500 150.718 254.349 C 154.095 259.367, 156.389 265.742, 157.512 273.232 L 158.162 277.565 152.611 279.866 C 146.161 282.539, 143.630 285.902, 141.917 294.074 C 139.648 304.905, 137.443 308.447, 129.651 313.788 C 125.718 316.484, 119.643 320.196, 116.152 322.036 C 111.628 324.421, 107.964 327.493, 103.403 332.722 C 94.220 343.251, 92.107 347.950, 90.998 360.302 C 90.008 371.331, 88.647 376.731, 84.043 387.895 C 82.409 391.859, 80.791 396.599, 80.447 398.429 C 79.574 403.086, 82.066 407.368, 87.506 410.556 C 92.866 413.698, 92.830 413.371, 89.918 432.104 C 86.158 456.296, 88.463 469.105, 98.053 477.314 C 104.927 483.197, 111.918 484.297, 121.500 481 C 132.110 477.350, 133.805 478.481, 131.999 488.006 C 131.351 491.424, 131.328 493.728, 131.936 494.336 C 132.544 494.944, 138.001 493.763, 146.931 491.091 C 166.620 485.199, 215.893 473.824, 219.500 474.337 C 221.150 474.572, 231.500 476.796, 242.500 479.280 C 253.500 481.763, 271.352 485.662, 282.172 487.944 L 301.843 492.094 314.981 489.004 C 322.207 487.305, 345.515 482.316, 366.775 477.917 C 392.634 472.567, 406.049 469.360, 407.298 468.230 C 408.325 467.301, 409.773 465.085, 410.517 463.306 C 411.431 461.117, 412.779 459.853, 414.684 459.398 C 418.137 458.572, 420.163 457.072, 419.429 455.885 C 418.764 454.809, 414.757 455.366, 396.500 459.071 C 330.557 472.453, 316.257 475.436, 307.631 477.609 C 298.793 479.835, 295.573 480.094, 297.224 478.443 C 298.353 477.314, 328.466 470.765, 368.433 462.956 C 424.400 452.022, 432.108 450.308, 435 448.158 C 437.151 446.559, 438.586 442.259, 445.267 417.399 C 454.246 383.991, 466.929 338.851, 470.477 327.671 C 472.952 319.872, 472.909 317.913, 470.193 314.750 C 467.682 311.827, 463.736 312.212, 406.500 320.962 C 343.108 330.653, 328.863 333.244, 326.076 335.589 C 322.040 338.986, 320.616 342.903, 312.103 374.044 C 304.557 401.643, 304.223 402.568, 301.014 404.750 C 299.193 405.988, 297.102 407, 296.366 407 C 294.944 407, 292.575 402.105, 290.800 395.500 C 289.752 391.601, 289.825 391.399, 293.734 387.496 C 296.452 384.781, 298.330 381.630, 299.567 377.705 L 301.391 371.918 296.701 362.709 C 294.121 357.644, 291.547 351.324, 290.982 348.664 C 290.416 346.004, 289.080 342.117, 288.013 340.026 C 285.331 334.768, 275.062 322.021, 270.439 318.210 C 266.370 314.856, 259.318 312.004, 255.072 311.994 C 253.657 311.991, 250.830 311.525, 248.789 310.958 C 245.648 310.086, 244.579 308.989, 241.818 303.810 C 238.376 297.353, 233.677 293.161, 226.250 289.924 C 223.018 288.515, 222.004 287.523, 222.015 285.786 C 222.041 281.980, 223.190 281.312, 231 280.565 C 251.699 278.586, 274.064 270.913, 287.322 261.242 C 293.401 256.807, 299.328 249.006, 302.399 241.397 C 304.562 236.036, 305.271 235.260, 310.199 232.858 C 320.526 227.826, 327.273 217.608, 327.273 207 C 327.273 197.855, 322.274 188.860, 316.367 187.377 C 315.065 187.051, 314 186.215, 314 185.520 C 314 184.825, 316.324 180.711, 319.164 176.378 C 326.731 164.833, 332.611 151.749, 334.539 142.162 C 336.252 133.649, 336.263 133.901, 333.472 116.500 C 333.096 114.152, 333.507 114.587, 335.363 118.500 C 340.013 128.305, 341.184 139.960, 338.525 149.953 C 337.727 152.953, 337.269 155.602, 337.507 155.841 C 338.201 156.535, 343.904 150.033, 348.324 143.509 C 350.563 140.204, 355.392 133.450, 359.055 128.500 C 362.718 123.550, 366.658 117.647, 367.810 115.382 L 369.906 111.263 366.242 113.132 C 363.990 114.279, 360.475 115, 357.126 115 C 348.490 115, 344.032 111.576, 330.640 94.657 L 326.780 89.780 332.284 84.140 C 339.785 76.455, 341.449 72.964, 341.410 65 C 341.386 60.118, 340.729 57.131, 338.772 53 L 336.167 47.500 336.080 52 C 335.927 59.874, 330.850 65.674, 323.213 66.698 C 319.367 67.214, 319.299 67.161, 307.425 54.526 C 300.866 47.546, 292.099 39.258, 287.943 36.109 C 273.270 24.992, 251.988 15.955, 232.259 12.463 C 223.578 10.927, 199.736 9.792, 193 10.594 M 233.337 22.564 C 231.884 26.351, 234.856 28.914, 248.788 35.894 C 273.126 48.086, 288.304 57.404, 296.750 65.339 C 299.686 68.098, 300 68.196, 300 66.356 C 300 65.236, 298.593 61.504, 296.873 58.062 C 294.348 53.009, 292.243 50.619, 285.944 45.652 C 276.970 38.575, 261.176 29.552, 248.945 24.515 C 239.746 20.726, 234.303 20.046, 233.337 22.564 M 285.245 126.541 C 282.113 128.734, 282.450 130.081, 286.921 133.243 L 290.800 135.986 289.386 131.243 C 288.609 128.634, 287.864 126.155, 287.731 125.734 C 287.598 125.313, 286.479 125.676, 285.245 126.541 M 274.863 134.082 C 267.342 139.560, 243.603 149.471, 229.283 153.110 C 220.142 155.433, 220.078 155.471, 221.533 157.691 C 223.417 160.566, 223.413 163.904, 221.525 164.629 C 220.714 164.940, 218.524 164.251, 216.657 163.097 C 208.696 158.177, 196.992 161.519, 185.721 171.931 C 178.852 178.276, 177.559 177.766, 178.482 169.079 C 179.626 158.304, 184.092 152.419, 194.783 147.598 C 197.038 146.581, 199.124 145.120, 199.419 144.352 C 199.822 143.300, 199.527 143.179, 198.227 143.864 C 195.940 145.069, 179.140 149.548, 171.170 151.077 C 163.920 152.468, 163.804 152.633, 161.336 165 C 159.642 173.489, 160.107 185.152, 162.493 194 C 164.389 201.032, 164.392 201, 161.870 201 C 160.550 201, 157.078 198.291, 152.750 193.885 C 144.826 185.818, 143.650 185.981, 144.687 195 C 145.035 198.025, 145.360 201.147, 145.410 201.938 C 145.460 202.744, 144.029 203.808, 142.150 204.361 C 138.858 205.330, 138.685 205.220, 132.305 198.160 C 125.343 190.456, 119.661 186.544, 113.909 185.493 C 100.549 183.053, 90.075 197.427, 94.392 212.277 C 97.081 221.525, 105.135 228.328, 126.472 239.373 C 132.367 242.424, 139.721 242.158, 144.691 238.714 C 146.845 237.221, 148.904 236, 149.266 236 C 149.629 236, 151.763 238.706, 154.009 242.013 C 161.932 253.680, 177.303 262.682, 198.500 268.070 C 219.359 273.372, 237.968 273.125, 256.476 267.299 C 285.803 258.068, 295.813 246.757, 298.974 219.276 C 299.557 214.203, 300.953 205.653, 302.076 200.276 C 303.199 194.899, 304.524 184.425, 305.020 177 C 305.517 169.575, 306.337 161.837, 306.844 159.805 C 307.524 157.074, 307.410 155.602, 306.404 154.167 C 305.032 152.208, 297.096 147.570, 296.366 148.301 C 296.149 148.517, 296.975 149.969, 298.200 151.527 C 299.839 153.610, 300.538 156.092, 300.845 160.906 L 301.262 167.453 296.668 162.726 C 292.440 158.376, 291.690 158, 287.237 158 C 284.577 158, 281.890 158.510, 281.267 159.133 C 279.697 160.703, 277 159.461, 277 157.166 C 277 152.396, 284.429 147.056, 291.218 146.947 L 294.500 146.895 290.540 143.697 C 288.361 141.939, 284.532 138.627, 282.029 136.338 L 277.480 132.175 274.863 134.082 M 280.059 175.178 C 272.468 180.302, 268.929 194.249, 272.496 204.988 C 274.632 211.419, 278.607 214.336, 284.288 213.643 C 289.699 212.982, 292.402 210.842, 295.384 204.856 C 299.850 195.895, 298.660 183.821, 292.677 177.403 C 288.443 172.860, 284.518 172.168, 280.059 175.178 M 204.389 176.905 C 195.710 182.197, 191.703 196.902, 195.476 209.609 C 199.381 222.756, 213.672 224.809, 219.689 213.088 C 224.597 203.526, 223.554 191.262, 216.965 181.067 C 212.558 174.248, 210.086 173.430, 204.389 176.905 M 283.607 185.582 C 282.479 188.520, 282.990 194.541, 284.557 196.777 C 286.409 199.422, 289.218 199.640, 291.538 197.319 C 293.463 195.394, 293.130 188.066, 291 185.501 C 289.345 183.506, 284.383 183.560, 283.607 185.582 M 209 188.979 C 207.938 189.650, 207.500 191.683, 207.500 195.936 C 207.500 200.799, 207.921 202.365, 209.708 204.152 C 212.796 207.241, 216.624 205.521, 217.541 200.633 C 219.037 192.658, 214.016 185.808, 209 188.979 M 310.099 196.381 C 309.319 197.320, 309.126 199.154, 309.561 201.475 C 309.987 203.743, 309.665 207.049, 308.702 210.301 C 307.856 213.160, 306.910 217.637, 306.601 220.250 C 305.915 226.045, 307.283 226.446, 312.400 221.953 C 316.923 217.982, 319.424 211.453, 318.741 205.398 C 317.913 198.047, 312.984 192.905, 310.099 196.381 M 107 196.704 C 106.175 197.004, 104.263 198.403, 102.750 199.812 C 99.666 202.685, 98.881 208, 101.540 208 C 104.059 208, 110.192 211.525, 115 215.736 C 124.358 223.933, 129.083 227, 132.327 226.985 C 137.370 226.960, 138.386 225.816, 137.619 221.019 C 135.216 205.992, 118.329 192.582, 107 196.704 M 256.223 211.557 C 255 212.413, 254 213.739, 254 214.505 C 254 215.619, 254.602 215.686, 257.031 214.839 C 263.894 212.447, 269.592 218.612, 265.018 223.481 C 262.587 226.069, 263.022 228, 266.036 228 C 268.644 228, 271.400 223.502, 271.400 219.244 C 271.400 212.244, 262.022 207.494, 256.223 211.557 M 229.571 237.571 C 226.837 240.306, 227.685 243.574, 232.111 247.363 C 240.194 254.282, 253.892 254.308, 260.782 247.418 C 263.458 244.742, 264.068 243.408, 263.816 240.784 C 263.553 238.047, 263.090 237.500, 261.037 237.500 C 259.104 237.500, 258.369 238.217, 257.617 240.838 C 257.091 242.674, 255.595 244.874, 254.294 245.727 C 251.410 247.617, 242.371 247.864, 239.215 246.140 C 237.295 245.092, 237.030 244.355, 237.560 241.532 C 238.073 238.797, 237.813 237.970, 236.161 237.086 C 233.354 235.584, 231.416 235.727, 229.571 237.571 M 166.459 270.750 C 166.863 273.913, 167.517 279.370, 167.912 282.878 C 168.711 289.972, 168.557 289.792, 179.347 296.247 C 187.384 301.055, 194.081 303, 202.601 303 C 210.031 303, 209.901 303.269, 209.224 289.214 C 208.829 280.993, 208.426 278.959, 207.118 278.572 C 206.228 278.309, 202.407 277.391, 198.627 276.533 C 189.966 274.566, 177.915 270.453, 171.783 267.371 C 169.189 266.067, 166.765 265, 166.396 265 C 166.027 265, 166.055 267.587, 166.459 270.750 M 153.232 289.247 C 152.672 289.936, 151.082 294.100, 149.700 298.500 C 147.818 304.488, 147.465 306.839, 148.295 307.846 C 148.905 308.586, 152.626 311.617, 156.563 314.580 C 166.892 322.354, 177.150 332.115, 181.085 337.915 C 182.963 340.683, 184.799 342.960, 185.165 342.974 C 186.773 343.037, 194.310 333.104, 197.515 326.698 C 201.861 318.010, 202.229 318.537, 185.069 308.838 C 168.884 299.690, 163.029 295.924, 158.182 291.546 C 155.163 288.818, 154.014 288.284, 153.232 289.247 M 222 298.702 C 222 299.639, 223.440 301.890, 225.200 303.706 C 228.204 306.806, 228.326 307.209, 227.200 310.325 C 225.534 314.931, 225.696 316.767, 227.871 317.931 C 228.900 318.482, 231.590 322.484, 233.848 326.825 C 236.106 331.165, 238.701 335.337, 239.615 336.095 C 241.146 337.366, 241.240 336.804, 240.826 328.898 C 240.446 321.675, 239.809 319.130, 236.782 312.755 C 231.756 302.172, 222 292.898, 222 298.702 M 208.301 324.186 C 207.159 325.614, 204 331.617, 204 332.359 C 204 333.151, 215.820 336.846, 216.424 336.242 C 217.504 335.163, 217.004 327.387, 215.750 325.746 C 214.014 323.473, 209.609 322.550, 208.301 324.186 M 265.038 323.325 C 265.017 323.779, 266.787 327.158, 268.971 330.835 C 276.355 343.264, 279.972 357.285, 280.293 374.734 C 280.490 385.443, 280.593 385.942, 282.500 385.402 C 285.314 384.605, 289.048 381.816, 291.250 378.867 C 294.134 375.005, 293.715 370.976, 289.745 364.391 C 287.792 361.151, 285.003 354.830, 283.547 350.345 C 282.091 345.860, 279.495 340.070, 277.778 337.478 C 274.335 332.281, 265.098 322.019, 265.038 323.325 M 119.500 329.386 C 116.244 330.805, 106.357 340.992, 102.330 347.077 C 100.363 350.050, 99.640 352.860, 98.957 360.181 C 97.977 370.699, 96.186 377.963, 91.929 388.679 C 88.392 397.584, 88.249 400.465, 91.250 402.419 C 94.189 404.332, 105.295 407.261, 121.719 410.455 C 128.989 411.869, 136.061 413.453, 137.434 413.975 C 140.213 415.032, 140.676 414.617, 142.046 409.840 C 143.535 404.648, 142.003 403.382, 129.510 399.482 C 118.797 396.138, 114.505 393.972, 118.691 394.022 C 122.233 394.064, 137.932 397.913, 140.969 399.484 C 142.669 400.363, 144.496 400.812, 145.029 400.482 C 146.320 399.684, 146.258 388.252, 144.888 374.215 C 144.094 366.091, 144.084 362.516, 144.851 361.749 C 146.668 359.932, 148.250 365.859, 150.656 383.500 C 151.291 388.149, 151.388 388.290, 152.051 385.500 C 152.443 383.850, 152.817 377.532, 152.882 371.460 C 153.060 354.855, 150.036 345.352, 141.679 336.250 C 134.856 328.818, 126.638 326.275, 119.500 329.386 M 222.930 335.750 C 219.839 345.607, 218.198 346.067, 209.520 339.515 C 206.230 337.032, 203.305 335.024, 203.020 335.054 C 202.734 335.084, 200.656 337.696, 198.403 340.858 C 194.294 346.626, 186.168 353, 182.924 353 C 181.858 353, 179.946 350.795, 177.956 347.268 C 174.842 341.750, 163.586 329, 161.829 329 C 161.359 329, 162.520 332.069, 164.409 335.820 C 169.487 345.904, 171.055 352.856, 171.666 368 C 172.082 378.327, 171.842 383.028, 170.646 388 C 169.219 393.930, 169.221 394.588, 170.675 395.500 C 174.880 398.140, 178 401.357, 178 403.054 C 178 405.867, 172.231 411.884, 168.648 412.806 C 165.808 413.537, 165.469 414.035, 165.188 417.895 C 164.892 421.959, 164.993 422.138, 167.188 421.459 C 168.460 421.065, 171.075 419.956, 173 418.994 C 183.104 413.945, 191.485 411.794, 204 411.037 C 214.908 410.378, 218.118 409.738, 229.209 406.012 L 241.918 401.743 247.209 403.507 C 250.119 404.478, 255.762 405.495, 259.750 405.767 C 268.124 406.340, 267.794 406.907, 265.481 395.912 C 264.646 391.941, 264.209 387.917, 264.509 386.970 C 264.879 385.807, 264.397 385.076, 263.028 384.718 C 260.282 384, 260.332 379.581, 263.108 377.637 C 264.268 376.824, 264.981 375.779, 264.694 375.314 C 264.406 374.848, 263.043 369.460, 261.664 363.341 C 259.182 352.320, 252.999 336.074, 250.497 333.997 C 249.473 333.148, 249.052 333.986, 248.505 337.966 C 248.123 340.742, 247.035 343.970, 246.088 345.140 C 244.400 347.224, 244.291 347.232, 240.648 345.503 C 236.483 343.527, 232.235 338.804, 228.802 332.334 C 227.538 329.950, 226.246 328, 225.932 328 C 225.617 328, 224.266 331.488, 222.930 335.750 M 444 338.167 C 440.975 338.606, 416.081 342.661, 388.680 347.178 C 350.617 353.454, 338.668 355.759, 338.046 356.946 C 337.032 358.879, 316 445.158, 316 447.382 C 316 449.386, 315.804 449.393, 325.500 447.068 C 334.588 444.889, 411.962 429.545, 419.329 428.460 C 422.924 427.931, 424.376 427.207, 425.014 425.625 C 426.460 422.040, 450.204 337.864, 449.840 337.608 C 449.653 337.477, 447.025 337.728, 444 338.167 M 280.582 395.167 C 280.352 395.900, 279.891 399.526, 279.557 403.225 C 278.963 409.795, 279.008 409.964, 281.473 410.582 C 284.804 411.419, 287.019 410.483, 286.920 408.281 C 286.876 407.302, 286.088 403.836, 285.170 400.579 C 283.561 394.875, 281.454 392.390, 280.582 395.167 M 168.573 404.521 C 167.513 405.323, 166.887 406.220, 167.181 406.515 C 167.476 406.809, 168.793 406.154, 170.108 405.058 C 172.843 402.781, 171.496 402.310, 168.573 404.521 M 228 413.233 C 217.864 416.827, 215.018 417.398, 204 418.046 C 193.579 418.660, 190.086 419.307, 183 421.939 C 178.325 423.676, 163.553 428.179, 150.174 431.946 C 133.165 436.735, 124.347 439.728, 120.858 441.898 C 115.099 445.477, 115 445.504, 115 443.478 C 115 440.566, 123.072 433.057, 128.133 431.259 C 132.769 429.613, 133 429.355, 133 425.824 C 133 423.786, 132.584 421.861, 132.075 421.546 C 131.566 421.232, 125.603 419.860, 118.825 418.498 C 112.046 417.136, 105.480 415.782, 104.234 415.488 C 101.258 414.786, 100.514 416.822, 97.882 432.880 C 95.328 448.463, 95.598 460.915, 98.603 466.060 C 101.370 470.798, 106.436 474, 111.166 474 C 118.371 474, 139.436 466.536, 168.930 453.532 C 178.517 449.305, 189.281 444.748, 192.851 443.404 C 196.421 442.060, 199.908 440.491, 200.600 439.917 C 201.489 439.179, 203.274 439.356, 206.679 440.518 C 212.810 442.611, 221.667 441.806, 228.783 438.509 C 232.818 436.640, 235.490 436.159, 241.496 436.221 C 251.210 436.322, 252.724 434.988, 246.118 432.146 C 243.374 430.966, 240.650 430, 240.065 430 C 239.479 430, 239 429.325, 239 428.500 C 239 423.662, 255.282 430.007, 261.495 437.265 C 264.613 440.907, 264.908 441.040, 265.878 439.228 C 267.373 436.434, 265.542 430.695, 262.036 427.190 C 260.445 425.599, 256.299 423.263, 252.822 421.999 C 249.345 420.734, 245.825 419.036, 245 418.226 C 243.676 416.925, 244.109 416.819, 248.688 417.321 C 260.028 418.567, 268.908 425.132, 272.025 434.574 C 274.220 441.227, 276.538 437.605, 274.918 430.053 C 273.441 423.168, 268.903 418.791, 260.296 415.952 C 256.558 414.719, 251.082 412.651, 248.126 411.355 C 245.170 410.060, 242.020 409.035, 241.126 409.078 C 240.232 409.121, 234.325 410.991, 228 413.233 M 258.500 411.680 C 269.452 414.134, 274.380 417.847, 279.104 427.206 C 280.713 430.393, 282.472 433, 283.014 433 C 284.464 433, 284.214 426.436, 282.623 422.718 C 279.593 415.635, 270.493 410.868, 260.500 411.128 C 258.300 411.185, 257.400 411.434, 258.500 411.680 M 294.215 415.002 C 290.758 415.956, 287.633 417.033, 287.271 417.396 C 286.908 417.759, 287.833 420.548, 289.327 423.595 C 291.537 428.101, 292.452 429.074, 294.234 428.817 C 295.957 428.568, 296.926 427.038, 298.767 421.662 C 300.055 417.902, 300.971 414.474, 300.804 414.046 C 300.637 413.617, 297.672 414.048, 294.215 415.002 M 192.570 458.887 C 191.442 460.711, 194.889 461.768, 209 463.923 C 216.975 465.142, 227.100 466.969, 231.500 467.984 C 239.399 469.806, 243.371 470.517, 262 473.443 C 273.527 475.254, 282.953 476.223, 281.250 475.422 C 280.563 475.098, 280 473.393, 280 471.633 L 280 468.432 267.250 466.661 C 260.238 465.687, 250 464.253, 244.500 463.476 C 239 462.698, 229.325 461.584, 223 461.001 C 216.675 460.417, 207.675 459.507, 203 458.978 C 192.627 457.804, 193.236 457.810, 192.570 458.887 M 225.543 463.931 C 225.226 464.443, 225.425 465.144, 225.984 465.490 C 227.177 466.227, 229 465.291, 229 463.941 C 229 462.724, 226.293 462.716, 225.543 463.931 M 233 465.402 C 233 467.188, 239.012 469.388, 240.320 468.080 C 240.840 467.560, 240.995 466.429, 240.664 465.567 C 239.877 463.515, 233 463.367, 233 465.402 M 244.380 466.452 C 243.477 468.804, 244.886 470, 248.559 470 C 252.133 470, 253.048 468.448, 250.800 466.200 C 249.135 464.535, 245.054 464.696, 244.380 466.452 M 255.345 468.543 C 254.521 470.691, 255.031 470.979, 260.864 471.670 C 265.060 472.167, 266 472, 266 470.758 C 266 469.793, 264.376 468.828, 261.557 468.119 C 255.953 466.708, 256.052 466.701, 255.345 468.543 M 269.691 471.363 C 269.059 473.011, 270.921 474, 274.655 474 C 276.488 474, 277.059 473.537, 276.815 472.250 C 276.384 469.972, 270.505 469.241, 269.691 471.363" stroke="none" fill="black" fill-rule="evenodd"/>
</svg>